<svg width="70" height="70" viewBox="0 0 70 70" fill="none" xmlns="http://www.w3.org/2000/svg">
<path opacity="0.5" d="M37.4267 63.5862C46.5442 61.7604 58.3333 55.2008 58.3333 38.2404C58.3333 22.8083 47.0371 12.5299 38.9142 7.80786C37.1087 6.75786 35 8.13744 35 10.2229V15.5545C35 19.7604 33.2325 27.437 28.3208 30.6308C25.8125 32.2612 23.1 29.8199 22.7967 26.8449L22.5458 24.4008C22.2542 21.5599 19.3608 19.8362 17.0917 21.5687C13.0113 24.6749 8.75 30.1291 8.75 38.2374C8.75 58.9779 24.1762 64.1666 31.8879 64.1666C32.339 64.1666 32.8096 64.152 33.2996 64.1229C34.6004 63.9595 33.2996 64.4116 37.4267 63.5833" fill="black"/>
<path d="M23.3333 53.7952C23.3333 61.4368 29.4903 63.7993 33.2995 64.126C34.6003 63.9627 33.2995 64.4148 37.4266 63.5864C40.457 62.516 43.7499 59.7685 43.7499 53.7952C43.7499 50.0123 41.3612 47.676 39.4916 46.5823C38.9199 46.2468 38.2549 46.6698 38.2053 47.3289C38.042 49.4231 36.0295 51.0914 34.6616 49.4989C33.4512 48.0931 32.9408 46.0368 32.9408 44.7214V43.0006C32.9408 41.9681 31.8995 41.2798 31.007 41.8106C27.6937 43.7735 23.3333 47.816 23.3333 53.7952Z" fill="black"/>
</svg>
