<svg width="50" height="50" viewBox="0 0 50 50" fill="none" xmlns="http://www.w3.org/2000/svg">
<path d="M35.4167 31.7604V46.0771C35.4167 46.2614 35.3679 46.4424 35.2751 46.6017C35.1823 46.7609 35.049 46.8927 34.8886 46.9836C34.7283 47.0745 34.5467 47.1212 34.3624 47.1189C34.1781 47.1167 33.9977 47.0656 33.8396 46.9709L25 41.6667L16.1605 46.9709C16.0022 47.0657 15.8216 47.1168 15.6372 47.1189C15.4527 47.1211 15.271 47.0742 15.1105 46.9831C14.9501 46.892 14.8168 46.7599 14.7242 46.6003C14.6316 46.4408 14.583 46.2595 14.5834 46.075V31.7625C11.8878 29.6044 9.92919 26.6623 8.97808 23.3428C8.02697 20.0234 8.13037 16.4904 9.27398 13.2323C10.4176 9.9741 12.545 7.15159 15.3621 5.15478C18.1792 3.15796 21.547 2.08545 25 2.08545C28.4531 2.08545 31.8209 3.15796 34.638 5.15478C37.4551 7.15159 39.5825 9.9741 40.7261 13.2323C41.8697 16.4904 41.9731 20.0234 41.022 23.3428C40.0709 26.6623 38.1122 29.6044 35.4167 31.7625M25 31.25C28.3152 31.25 31.4947 29.9331 33.8389 27.5889C36.1831 25.2447 37.5 22.0652 37.5 18.75C37.5 15.4348 36.1831 12.2554 33.8389 9.91119C31.4947 7.56699 28.3152 6.25003 25 6.25003C21.6848 6.25003 18.5054 7.56699 16.1612 9.91119C13.817 12.2554 12.5 15.4348 12.5 18.75C12.5 22.0652 13.817 25.2447 16.1612 27.5889C18.5054 29.9331 21.6848 31.25 25 31.25ZM25 27.0834C22.7899 27.0834 20.6703 26.2054 19.1075 24.6426C17.5447 23.0798 16.6667 20.9602 16.6667 18.75C16.6667 16.5399 17.5447 14.4203 19.1075 12.8575C20.6703 11.2947 22.7899 10.4167 25 10.4167C27.2102 10.4167 29.3298 11.2947 30.8926 12.8575C32.4554 14.4203 33.3334 16.5399 33.3334 18.75C33.3334 20.9602 32.4554 23.0798 30.8926 24.6426C29.3298 26.2054 27.2102 27.0834 25 27.0834Z" fill="#F8F9FA"/>
</svg>
