<svg width="80" height="80" viewBox="0 0 80 80" fill="none" xmlns="http://www.w3.org/2000/svg">
<path d="M13.3333 53.3334V66.6667H26.6666V73.3334H6.66663V53.3334H13.3333ZM73.3333 53.3334V73.3334H53.3333V66.6667H66.6666V53.3334H73.3333ZM25 23.3334C25 27.3117 26.5803 31.127 29.3934 33.94C32.2064 36.7531 36.0217 38.3334 40 38.3334C43.9782 38.3334 47.7935 36.7531 50.6066 33.94C53.4196 31.127 55 27.3117 55 23.3334H61.6666C61.6674 27.2981 60.5803 31.1869 58.5238 34.5765C56.4672 37.966 53.5201 40.7263 50.0033 42.5567L50 63.3334H30V42.5601C26.482 40.7298 23.5339 37.9692 21.4767 34.579C19.4195 31.1888 18.3322 27.299 18.3333 23.3334H25ZM40 16.6667C42.2101 16.6667 44.3297 17.5447 45.8925 19.1075C47.4553 20.6703 48.3333 22.7899 48.3333 25.0001C48.3333 27.2102 47.4553 29.3298 45.8925 30.8926C44.3297 32.4554 42.2101 33.3334 40 33.3334C37.7898 33.3334 35.6702 32.4554 34.1074 30.8926C32.5446 29.3298 31.6666 27.2102 31.6666 25.0001C31.6666 22.7899 32.5446 20.6703 34.1074 19.1075C35.6702 17.5447 37.7898 16.6667 40 16.6667ZM26.6666 6.66675V13.3334L13.3333 13.3301V26.6667H6.66663V6.66675H26.6666ZM73.3333 6.66675V26.6667H66.6666V13.3334H53.3333V6.66675H73.3333Z" fill="#F8F9FA"/>
</svg>
