<svg width="85" height="85" viewBox="0 0 85 85" fill="none" xmlns="http://www.w3.org/2000/svg">
<path d="M21.2501 77.9166C19.3022 77.9166 17.6352 77.2236 16.2492 75.8376C14.8633 74.4517 14.1691 72.7835 14.1667 70.8333V14.1666C14.1667 12.2187 14.8609 10.5517 16.2492 9.16575C17.6376 7.77978 19.3045 7.08561 21.2501 7.08325H63.7501C65.698 7.08325 67.3661 7.77742 68.7545 9.16575C70.1428 10.5541 70.8358 12.221 70.8334 14.1666V70.8333C70.8334 72.7812 70.1404 74.4493 68.7545 75.8376C67.3685 77.226 65.7004 77.9189 63.7501 77.9166H21.2501ZM21.2501 70.8333H63.7501V14.1666H56.6667V35.8593C56.6667 36.5676 56.3716 37.0847 55.7813 37.4105C55.1911 37.7364 54.6008 37.721 54.0105 37.3645L49.672 34.7083C49.0817 34.3541 48.4761 34.177 47.8551 34.177C47.2341 34.177 46.6297 34.3541 46.0417 34.7083L41.7032 37.3645C41.1129 37.7187 40.5085 37.734 39.8899 37.4105C39.2713 37.0871 38.9608 36.57 38.9584 35.8593V14.1666H21.2501V70.8333ZM39.8899 37.4105C39.2713 37.0871 38.9608 36.57 38.9584 35.8593C38.9561 36.57 39.2689 37.0871 39.8899 37.4105Z" fill="#F8F9FA"/>
</svg>
