<svg width="45" height="45" viewBox="0 0 45 45" fill="none" xmlns="http://www.w3.org/2000/svg">
<path d="M11.25 41.25H39.375V37.5H11.2725C10.4062 37.4775 9.375 37.1344 9.375 35.625C9.375 34.1156 10.4062 33.7725 11.2725 33.75H39.375V7.5C39.375 5.43187 37.6931 3.75 35.625 3.75H11.25C8.98875 3.75 5.625 5.24813 5.625 9.375V35.625C5.625 39.7519 8.98875 41.25 11.25 41.25ZM9.375 15V9.375C9.375 7.86562 10.4062 7.5225 11.25 7.5H35.625V30H9.375V15Z" fill="white"/>
<path d="M15 11.25H31.875V15H15V11.25Z" fill="white"/>
</svg>
