<svg width="45" height="45" viewBox="0 0 45 45" fill="none" xmlns="http://www.w3.org/2000/svg">
<path d="M22.5 36.8343C19.9669 35.0512 17.0344 33.9149 13.9594 33.5324C11.7785 33.0894 9.55653 32.8801 7.33125 32.9081C7.04651 32.9105 6.76411 32.8566 6.50033 32.7493C6.23655 32.6421 5.99663 32.4837 5.79442 32.2832C5.5922 32.0827 5.43169 31.8442 5.32216 31.5813C5.21263 31.3185 5.15624 31.0366 5.15625 30.7518L5.19562 10.3274C5.19443 9.77942 5.40194 9.2515 5.77599 8.85099C6.15004 8.45047 6.66255 8.2074 7.20937 8.17119C9.47464 8.12616 11.7381 8.32861 13.9594 8.77494C17.031 9.17123 19.9613 10.3047 22.5 12.0787M22.5 36.8343V12.0787M22.5 36.8343C25.0331 35.0512 27.9656 33.9149 31.0406 33.5324C33.2215 33.0894 35.4435 32.8801 37.6687 32.9081C37.9535 32.9105 38.2359 32.8566 38.4997 32.7493C38.7634 32.6421 39.0034 32.4837 39.2056 32.2832C39.4078 32.0827 39.5683 31.8442 39.6778 31.5813C39.7874 31.3185 39.8438 31.0366 39.8437 30.7518L39.8025 10.3274C39.8037 9.77972 39.5965 9.25206 39.2228 8.85159C38.8492 8.45112 38.3371 8.20786 37.7906 8.17119C35.5254 8.12616 33.2619 8.32861 31.0406 8.77494C27.969 9.17123 25.0387 10.3047 22.5 12.0787" stroke="#FFFAF0" stroke-width="1.5" stroke-linecap="round" stroke-linejoin="round"/>
</svg>
