<svg width="55" height="55" viewBox="0 0 55 55" fill="none" xmlns="http://www.w3.org/2000/svg">
<path d="M39.6666 4.97141C39.7648 4.64662 39.9262 4.34442 40.1415 4.08213C40.3568 3.81985 40.6217 3.60264 40.9211 3.44296C41.2205 3.28328 41.5485 3.18427 41.8862 3.15162C42.224 3.11896 42.5648 3.1533 42.8893 3.25266C45.2036 3.96225 47.3202 5.20262 49.0703 6.87492C49.5552 7.34945 49.8335 7.99599 49.8449 8.67436C49.8563 9.35272 49.5998 10.0082 49.131 10.4987C48.6623 10.9892 48.0191 11.2752 47.3409 11.2946C46.6627 11.314 46.0042 11.0653 45.5082 10.6025C44.339 9.49059 42.9266 8.66669 41.3832 8.19621C41.0584 8.09777 40.7562 7.93615 40.494 7.72063C40.2317 7.50512 40.0146 7.23994 39.8552 6.94032C39.6957 6.64071 39.5969 6.31254 39.5646 5.97467C39.5322 5.63679 39.5669 5.29585 39.6666 4.97141ZM50.0264 36.0507C49.0149 39.827 46.9063 43.2185 43.9673 45.7963C41.0283 48.3742 37.3909 50.0226 33.515 50.5331C29.6391 51.0437 25.6989 50.3934 22.1926 48.6645C18.6863 46.9356 15.7714 44.2058 13.8166 40.8202L5.22286 25.9273C4.313 24.3494 4.06645 22.475 4.53733 20.7155C5.00822 18.9561 6.15805 17.4554 7.73438 16.5429C8.243 16.2491 8.7875 16.0224 9.3543 15.8683C8.71617 14.5392 8.52219 13.0402 8.80099 11.5925C9.0798 10.1447 9.81663 8.82496 10.9027 7.82795C11.9888 6.83093 13.3667 6.20946 14.8329 6.05527C16.2992 5.90108 17.7762 6.22233 19.0459 6.9716C19.7359 6.07993 20.6347 5.37165 21.663 4.90918C22.6912 4.4467 23.8175 4.24422 24.9424 4.31957C26.0674 4.39492 27.1566 4.74579 28.114 5.34127C29.0714 5.93675 29.8677 6.75856 30.4326 7.7343L33.5543 13.1419C34.3029 12.4052 35.2104 11.8498 36.2071 11.5184C37.2037 11.187 38.2631 11.0883 39.3038 11.23C40.3445 11.3717 41.339 11.75 42.2108 12.3357C43.0826 12.9215 43.8086 13.6993 44.333 14.6093L48.052 21.0546C49.3563 23.2995 50.2024 25.7808 50.5413 28.3549C50.8802 30.929 50.7052 33.5447 50.0264 36.0507ZM43.5811 23.6306L39.8686 17.1874C39.7557 16.9919 39.6054 16.8205 39.4264 16.6831C39.2473 16.5456 39.0429 16.4448 38.8248 16.3863C38.6068 16.3279 38.3793 16.313 38.1555 16.3424C37.9317 16.3718 37.7158 16.4451 37.5203 16.5579C37.3248 16.6708 37.1534 16.821 37.016 17.0001C36.8785 17.1792 36.7777 17.3836 36.7192 17.6017C36.6608 17.8197 36.6459 18.0472 36.6753 18.271C36.7047 18.4948 36.778 18.7106 36.8908 18.9062L38.326 21.3919C38.6408 21.9373 38.7452 22.5791 38.6193 23.1961C38.4934 23.8132 38.1461 24.3628 37.6428 24.7413C36.4057 25.6676 35.5726 27.0345 35.3162 28.5585C35.0598 30.0825 35.3998 31.6468 36.2656 32.9269C36.4663 33.2067 36.609 33.5238 36.6851 33.8597C36.7612 34.1955 36.7693 34.5432 36.7089 34.8822C36.6484 35.2212 36.5207 35.5446 36.3332 35.8334C36.1457 36.1223 35.9022 36.3706 35.6172 36.5638C35.3321 36.757 35.0113 36.8911 34.6735 36.9583C34.3358 37.0254 33.988 37.0242 33.6508 36.9548C33.3135 36.8853 32.9936 36.749 32.7098 36.5539C32.4261 36.3587 32.1844 36.1088 31.9988 35.8187C30.6155 33.7742 29.9475 31.3294 30.0991 28.8655C30.2507 26.4016 31.2132 24.0571 32.8367 22.1976L25.9746 10.3124C25.7467 9.91641 25.3708 9.62716 24.9296 9.5083C24.4884 9.38944 24.0181 9.45071 23.6221 9.67863C23.2261 9.90655 22.9368 10.2825 22.818 10.7236C22.6991 11.1648 22.7604 11.6352 22.9883 12.0312L28.1982 21.0546C28.3749 21.3481 28.4913 21.6738 28.5407 22.0127C28.5901 22.3516 28.5715 22.697 28.4859 23.0287C28.4003 23.3603 28.2494 23.6716 28.0422 23.9443C27.8349 24.217 27.5754 24.4457 27.2788 24.617C26.9822 24.7883 26.6544 24.8987 26.3146 24.9419C25.9748 24.9851 25.6299 24.9602 25.2998 24.8685C24.9698 24.7769 24.6613 24.6204 24.3924 24.4082C24.1236 24.1961 23.8996 23.9324 23.7338 23.6327L17.0436 12.0312C16.8093 11.6493 16.4353 11.3739 16.001 11.2638C15.5668 11.1536 15.1067 11.2173 14.7187 11.4414C14.3308 11.6655 14.0457 12.0322 13.9241 12.4634C13.8026 12.8946 13.8542 13.3562 14.068 13.7499L21.2695 26.2109C21.5967 26.802 21.6787 27.4979 21.498 28.1489C21.3172 28.7999 20.8881 29.3539 20.3031 29.6918C19.718 30.0297 19.0237 30.1244 18.3695 29.9555C17.7153 29.7867 17.1536 29.3678 16.8051 28.789L12.6607 21.6282C12.5512 21.4265 12.4024 21.2488 12.2231 21.1056C12.0438 20.9623 11.8376 20.8564 11.6167 20.7941C11.3957 20.7319 11.1646 20.7145 10.9369 20.743C10.7091 20.7715 10.4894 20.8453 10.2906 20.9601C10.0919 21.0749 9.91816 21.2284 9.77968 21.4114C9.64119 21.5944 9.54077 21.8033 9.48434 22.0258C9.4279 22.2483 9.4166 22.4798 9.45109 22.7067C9.48558 22.9336 9.56517 23.1513 9.68516 23.347L18.2832 38.2421C20.2205 41.5977 23.4115 44.0462 27.1541 45.049C29.0073 45.5456 30.9401 45.6723 32.8422 45.4219C34.7444 45.1715 36.5785 44.5488 38.24 43.5896C39.9016 42.6303 41.3578 41.3532 42.5258 39.8311C43.6937 38.309 44.5504 36.5718 45.047 34.7186C45.5435 32.8655 45.6702 30.9327 45.4198 29.0305C45.1694 27.1284 44.5468 25.2942 43.5875 23.6327L43.5811 23.6306ZM10.841 42.539C10.6752 42.2393 10.4513 41.9757 10.1824 41.7635C9.9135 41.5513 9.60503 41.3948 9.27499 41.3032C8.94496 41.2115 8.59997 41.1866 8.26018 41.2298C7.92039 41.273 7.59262 41.3834 7.296 41.5547C6.99939 41.726 6.73988 41.9547 6.53263 42.2274C6.32539 42.5001 6.17456 42.8114 6.08896 43.143C6.00336 43.4747 5.98471 43.8201 6.03409 44.159C6.08347 44.498 6.1999 44.8237 6.37657 45.1171C7.56686 47.1781 9.01037 49.0821 10.6734 50.7847C10.9077 51.0358 11.1899 51.2376 11.5032 51.3782C11.8166 51.5188 12.1549 51.5953 12.4983 51.6034C12.8416 51.6114 13.1832 51.5507 13.5028 51.4249C13.8224 51.2991 14.1136 51.1108 14.3594 50.8708C14.6052 50.6309 14.8005 50.3443 14.934 50.0279C15.0675 49.7114 15.1364 49.3715 15.1367 49.028C15.1369 48.6845 15.0686 48.3445 14.9356 48.0278C14.8026 47.7111 14.6077 47.4242 14.3623 47.1839C13 45.788 11.8171 44.2276 10.841 42.539Z" fill="#FFC60C"/>
</svg>
