<svg width="60" height="60" viewBox="0 0 60 60" fill="none" xmlns="http://www.w3.org/2000/svg">
<path d="M20.555 8.1675C20.905 8.125 21.2925 8.125 21.7425 8.125H38.2575C38.7075 8.125 39.095 8.125 39.445 8.1675C40.6874 8.32207 41.8427 8.88671 42.728 9.77199C43.6133 10.6573 44.1779 11.8126 44.3325 13.055L44.34 13.125H46.355C46.885 13.12 48.0475 13.11 49.0075 13.7525C50.25 14.58 50.625 16.0025 50.625 17.5C50.625 24.315 46.9925 28.865 42.355 31.3925C39.7675 36.1025 34.9875 39.375 30 39.375C26.2025 39.375 22.6 37.32 20.0075 34.4775C19.1461 33.5377 18.3899 32.5066 17.7525 31.4025C13.1175 28.8875 9.375 24.3425 9.375 17.5C9.375 16 9.75 14.58 10.99 13.7525C11.9525 13.11 13.115 13.12 13.645 13.125H15.66L15.6675 13.055C15.8221 11.8126 16.3867 10.6573 17.272 9.77199C18.1573 8.88671 19.3126 8.32207 20.555 8.1675ZM46.83 16.8875C46.6369 16.8759 46.4434 16.8717 46.25 16.875H44.3675L44.2875 25.1C45.8825 23.18 46.875 20.675 46.875 17.5C46.875 17.205 46.8525 17.01 46.83 16.8875ZM13.125 17.5C13.125 20.5925 14.095 23.05 15.65 24.955C15.485 23.09 15.53 21.195 15.575 19.31C15.5983 18.4933 15.6125 17.6817 15.6175 16.875H13.75C13.4775 16.875 13.305 16.875 13.1725 16.8875C13.1374 17.0897 13.1215 17.2948 13.125 17.5ZM30.575 16.3875C30.527 16.2748 30.4469 16.1786 30.3446 16.111C30.2424 16.0435 30.1225 16.0074 30 16.0074C29.8775 16.0074 29.7576 16.0435 29.6554 16.111C29.5531 16.1786 29.473 16.2748 29.425 16.3875L28.1625 19.4175C28.1185 19.5232 28.0462 19.6149 27.9536 19.6823C27.861 19.7498 27.7517 19.7905 27.6375 19.8L24.365 20.0625C24.2419 20.0722 24.1245 20.1182 24.0275 20.1947C23.9305 20.2711 23.8583 20.3746 23.8201 20.492C23.7818 20.6094 23.7792 20.7355 23.8126 20.8544C23.8459 20.9733 23.9138 21.0796 24.0075 21.16L26.5 23.295C26.5871 23.37 26.6519 23.4675 26.6872 23.5769C26.7225 23.6863 26.7269 23.8033 26.7 23.915L25.94 27.105C25.9107 27.2254 25.9178 27.3518 25.9605 27.4681C26.0032 27.5844 26.0795 27.6854 26.1797 27.7583C26.2799 27.8312 26.3995 27.8726 26.5233 27.8774C26.6471 27.8821 26.7695 27.85 26.875 27.785L29.675 26.075C29.7729 26.0154 29.8854 25.9839 30 25.9839C30.1146 25.9839 30.2271 26.0154 30.325 26.075L33.125 27.785C33.2305 27.85 33.3529 27.8821 33.4767 27.8774C33.6005 27.8726 33.7201 27.8312 33.8203 27.7583C33.9205 27.6854 33.9968 27.5844 34.0395 27.4681C34.0822 27.3518 34.0893 27.2254 34.06 27.105L33.2975 23.915C33.2706 23.8033 33.275 23.6863 33.3103 23.5769C33.3456 23.4675 33.4104 23.37 33.4975 23.295L35.9925 21.16C36.0871 21.0798 36.1557 20.9733 36.1896 20.854C36.2234 20.7347 36.2211 20.608 36.1827 20.4901C36.1444 20.3721 36.0719 20.2683 35.9743 20.1917C35.8768 20.1151 35.7587 20.0693 35.635 20.06L32.365 19.8C32.2504 19.7909 32.1405 19.7504 32.0475 19.6829C31.9544 19.6154 31.8817 19.5236 31.8375 19.4175L30.575 16.3875ZM30 40.625C30.4973 40.625 30.9742 40.8225 31.3258 41.1742C31.6775 41.5258 31.875 42.0027 31.875 42.5V48.125H40C40.4973 48.125 40.9742 48.3225 41.3258 48.6742C41.6775 49.0258 41.875 49.5027 41.875 50C41.875 50.4973 41.6775 50.9742 41.3258 51.3258C40.9742 51.6775 40.4973 51.875 40 51.875H20C19.5027 51.875 19.0258 51.6775 18.6742 51.3258C18.3225 50.9742 18.125 50.4973 18.125 50C18.125 49.5027 18.3225 49.0258 18.6742 48.6742C19.0258 48.3225 19.5027 48.125 20 48.125H28.125V42.5C28.125 42.0027 28.3225 41.5258 28.6742 41.1742C29.0258 40.8225 29.5027 40.625 30 40.625Z" fill="#F5DB4E"/>
</svg>
