<svg width="50" height="50" viewBox="0 0 50 50" fill="none" xmlns="http://www.w3.org/2000/svg">
<path d="M39.5833 12.5H10.4167C8.11548 12.5 6.25 14.3655 6.25 16.6667V39.5833C6.25 41.8845 8.11548 43.75 10.4167 43.75H39.5833C41.8845 43.75 43.75 41.8845 43.75 39.5833V16.6667C43.75 14.3655 41.8845 12.5 39.5833 12.5Z" stroke="#F8F9FA" stroke-width="2"/>
<path d="M6.25 20.8333C6.25 16.9042 6.25 14.9417 7.47083 13.7208C8.69167 12.5 10.6542 12.5 14.5833 12.5H35.4167C39.3458 12.5 41.3083 12.5 42.5292 13.7208C43.75 14.9417 43.75 16.9042 43.75 20.8333H6.25Z" fill="#F8F9FA"/>
<path d="M14.5833 6.25V12.5M35.4166 6.25V12.5" stroke="#F8F9FA" stroke-width="2" stroke-linecap="round"/>
</svg>
