<svg width="45" height="45" viewBox="0 0 45 45" fill="none" xmlns="http://www.w3.org/2000/svg">
<path d="M30.8941 23.49C34.74 23.49 37.8739 20.0644 37.8739 15.8963C37.8739 11.7756 34.7561 8.51147 30.8941 8.51147C27.0643 8.51147 23.9135 11.8238 23.9135 15.9284C23.9296 20.0805 27.0643 23.49 30.8941 23.49ZM12.2802 23.8452C15.6086 23.8452 18.3391 20.8559 18.3391 17.1884C18.3391 13.6013 15.6407 10.7092 12.2802 10.7092C8.95179 10.7092 6.20518 13.6503 6.22125 17.2206C6.23732 20.8728 8.95179 23.8452 12.2802 23.8452ZM30.8941 21.0504C28.5348 21.0504 26.5146 18.7884 26.5146 15.9284C26.5146 13.1159 28.5027 10.9519 30.8941 10.9519C33.3016 10.9519 35.2728 13.0846 35.2728 15.8955C35.2728 18.7562 33.2855 21.0504 30.8941 21.0504ZM12.2802 21.4377C10.309 21.4377 8.62875 19.5477 8.62875 17.2206C8.62875 14.9425 10.2921 13.1167 12.2802 13.1167C14.3156 13.1167 15.9477 14.9103 15.9477 17.1884C15.9477 19.5477 14.2674 21.4377 12.2802 21.4377ZM3.29625 38.6623H15.9806C15.2044 38.2259 14.6065 37.256 14.7198 36.2709H2.89286C2.56982 36.2709 2.4083 36.1423 2.4083 35.8345C2.4083 31.8279 6.98062 28.0792 12.2649 28.0792C14.3004 28.0792 16.1261 28.5638 17.6938 29.4847C18.2139 28.8263 18.8292 28.2491 19.5196 27.7723C17.4351 26.3982 14.9312 25.6878 12.2649 25.6878C5.49402 25.6878 0 30.5992 0 35.98C0 37.7735 1.09848 38.6623 3.29625 38.6623ZM20.7466 38.6623H41.0416C43.7231 38.6623 45 37.8547 45 36.0772C45 31.844 39.6514 25.7192 30.8941 25.7192C22.1199 25.7192 16.7721 31.844 16.7721 36.0772C16.7721 37.8547 18.0482 38.6623 20.7466 38.6623ZM19.9712 36.2226C19.5509 36.2226 19.3733 36.1101 19.3733 35.7702C19.3733 33.12 23.4771 28.1604 30.8941 28.1604C38.295 28.1604 42.398 33.12 42.398 35.7702C42.398 36.1093 42.2373 36.2226 41.8162 36.2226H19.9712Z" fill="white"/>
</svg>
