<svg width="80" height="80" viewBox="0 0 80 80" fill="none" xmlns="http://www.w3.org/2000/svg">
<g clip-path="url(#clip0_3434_3143)">
<path d="M30.0001 38.3333C32.3334 38.3333 34.3056 37.5144 35.9168 35.8766C37.5279 34.2389 38.3334 32.28 38.3334 30C38.3334 27.6666 37.5279 25.6944 35.9168 24.0833C34.3056 22.4722 32.3334 21.6666 30.0001 21.6666C27.6668 21.6666 25.6945 22.4722 24.0834 24.0833C22.4723 25.6944 21.6668 27.6666 21.6668 30C21.6668 32.2778 22.4723 34.2366 24.0834 35.8766C25.6945 37.5166 27.6668 38.3355 30.0001 38.3333ZM59.3334 46.0833C58.5001 45.75 57.9034 45.18 57.5434 44.3733C57.1834 43.5666 57.169 42.7755 57.5001 42C58.3334 40.1111 58.959 38.1533 59.3768 36.1266C59.7945 34.1 60.0023 32.0578 60.0001 30C59.9979 27.9422 59.7901 25.9144 59.3768 23.9166C58.9634 21.9189 58.3379 19.9744 57.5001 18.0833C57.1668 17.3055 57.1945 16.5422 57.5834 15.7933C57.9723 15.0444 58.5834 14.5022 59.4168 14.1666C60.3612 13.8333 61.2645 13.8755 62.1268 14.2933C62.989 14.7111 63.6134 15.3911 64.0001 16.3333C64.9445 18.5 65.6256 20.7366 66.0434 23.0433C66.4612 25.35 66.669 27.6689 66.6668 30C66.6668 32.3889 66.4445 34.7366 66.0001 37.0433C65.5556 39.35 64.8612 41.6133 63.9168 43.8333C63.5279 44.7778 62.9034 45.4722 62.0434 45.9166C61.1834 46.3611 60.2801 46.4166 59.3334 46.0833ZM69.0001 55.75C68.2223 55.3611 67.6668 54.7644 67.3334 53.96C67.0001 53.1555 67.0556 52.3911 67.5001 51.6666C69.4445 48.3889 70.9034 44.9444 71.8768 41.3333C72.8501 37.7222 73.3356 34 73.3334 30.1666C73.3312 26.3333 72.8312 22.5966 71.8334 18.9566C70.8356 15.3166 69.3634 11.8311 67.4168 8.49997C66.9723 7.77775 66.9301 7.01442 67.2901 6.20997C67.6501 5.40553 68.2201 4.80775 69.0001 4.41664C69.9445 3.9722 70.9034 3.95886 71.8768 4.37664C72.8501 4.79442 73.5856 5.47442 74.0834 6.41664C76.0279 10.0833 77.5001 13.8889 78.5001 17.8333C79.5001 21.7778 80.0001 25.8333 80.0001 30C80.0001 34.1666 79.4868 38.2644 78.4601 42.2933C77.4334 46.3222 75.9468 50.1689 74.0001 53.8333C73.5001 54.7778 72.7779 55.4444 71.8334 55.8333C70.889 56.2222 69.9445 56.1944 69.0001 55.75ZM13.3334 60C13.3334 59.0555 13.0145 58.2644 12.3768 57.6266C11.739 56.9889 10.9468 56.6689 10.0001 56.6666C9.05342 56.6644 8.26231 56.9844 7.62676 57.6266C6.9912 58.2689 6.6712 59.06 6.66675 60C6.66675 63.6666 7.97231 66.8055 10.5834 69.4166C13.1945 72.0278 16.3334 73.3333 20.0001 73.3333C23.4445 73.3333 26.2645 72.4722 28.4601 70.75C30.6556 69.0278 32.3356 66.5 33.5001 63.1666C34.4445 60.3889 35.3479 58.4444 36.2101 57.3333C37.0723 56.2222 39.0579 54.4444 42.1668 52C45.6112 49.2222 48.3334 46.0833 50.3334 42.5833C52.3334 39.0833 53.3334 34.8889 53.3334 30C53.3334 23.3889 51.0968 17.8478 46.6234 13.3766C42.1501 8.90553 36.609 6.66886 30.0001 6.66664C23.3912 6.66442 17.849 8.90109 13.3734 13.3766C8.89787 17.8522 6.66231 23.3933 6.66675 30C6.66675 30.9444 6.98676 31.7366 7.62676 32.3766C8.26675 33.0166 9.05787 33.3355 10.0001 33.3333C10.9423 33.3311 11.7345 33.0111 12.3768 32.3733C13.019 31.7355 13.3379 30.9444 13.3334 30C13.3334 25.2778 14.9312 21.32 18.1268 18.1266C21.3223 14.9333 25.2801 13.3355 30.0001 13.3333C34.7201 13.3311 38.679 14.9289 41.8768 18.1266C45.0745 21.3244 46.6712 25.2822 46.6668 30C46.6668 33.7778 45.9168 37 44.4168 39.6666C42.9168 42.3333 40.7779 44.7222 38.0001 46.8333C35.1112 48.9444 32.8612 51 31.2501 53C29.639 55 28.4445 57.1666 27.6668 59.5C26.889 61.9444 25.9579 63.75 24.8734 64.9166C23.789 66.0833 22.1645 66.6666 20.0001 66.6666C18.1668 66.6666 16.5979 66.0144 15.2934 64.71C13.989 63.4055 13.3356 61.8355 13.3334 60Z" fill="#F8F9FA"/>
</g>
<defs>
<clipPath id="clip0_3434_3143">
<rect width="80" height="80" fill="white"/>
</clipPath>
</defs>
</svg>
