<svg width="80" height="80" viewBox="0 0 80 80" fill="none" xmlns="http://www.w3.org/2000/svg">
<g clip-path="url(#clip0_3434_3149)">
<path fill-rule="evenodd" clip-rule="evenodd" d="M40 0C41.9714 0 43.5714 1.6 43.5714 3.57143V8.57143C43.5714 9.51863 43.1952 10.427 42.5254 11.0968C41.8556 11.7666 40.9472 12.1429 40 12.1429C39.0528 12.1429 38.1444 11.7666 37.4746 11.0968C36.8048 10.427 36.4286 9.51863 36.4286 8.57143V3.57143C36.4286 1.6 38.0286 0 40 0ZM62.5257 3.18857C62.8575 3.52022 63.1206 3.91397 63.3001 4.34734C63.4797 4.78071 63.5721 5.2452 63.5721 5.71429C63.5721 6.18337 63.4797 6.64786 63.3001 7.08123C63.1206 7.5146 62.8575 7.90835 62.5257 8.24L59.6686 11.0971C59.3369 11.4288 58.9431 11.6919 58.5098 11.8714C58.0764 12.0509 57.6119 12.1433 57.1429 12.1433C56.6738 12.1433 56.2093 12.0509 55.776 11.8714C55.3426 11.6919 54.9488 11.4288 54.6171 11.0971C54.2855 10.7655 54.0224 10.3717 53.8428 9.93834C53.6633 9.50497 53.571 9.0405 53.571 8.57143C53.571 8.10236 53.6633 7.63788 53.8428 7.20452C54.0224 6.77116 54.2855 6.3774 54.6171 6.04571L57.4743 3.18857C57.8059 2.85683 58.1997 2.59368 58.6331 2.41414C59.0664 2.2346 59.5309 2.14219 60 2.14219C60.4691 2.14219 60.9336 2.2346 61.3669 2.41414C61.8003 2.59368 62.1941 2.85683 62.5257 3.18857ZM22.5257 3.18857C21.8559 2.51871 20.9473 2.14239 20 2.14239C19.0527 2.14239 18.1441 2.51871 17.4743 3.18857C16.8044 3.85843 16.4281 4.76696 16.4281 5.71429C16.4281 6.66161 16.8044 7.57014 17.4743 8.24L20.3314 11.0971C21.0013 11.767 21.9098 12.1433 22.8571 12.1433C23.8045 12.1433 24.713 11.767 25.3829 11.0971C26.0527 10.4273 26.429 9.51875 26.429 8.57143C26.429 7.6241 26.0527 6.71558 25.3829 6.04571L22.5257 3.18857ZM47.48 47.6171C47.38 47.173 47.1179 46.7822 46.745 46.5211C46.3721 46.26 45.9152 46.1474 45.4637 46.2052C45.0121 46.2631 44.5984 46.4873 44.3034 46.834C44.0084 47.1807 43.8534 47.625 43.8686 48.08L44.5257 55.32C44.9619 60.1113 47.1732 64.5665 50.7255 67.8112C54.2778 71.0558 58.9146 72.8556 63.7257 72.8571H76.4286C77.3758 72.8571 78.2842 73.2334 78.954 73.9032C79.6237 74.573 80 75.4814 80 76.4286C80 77.3758 79.6237 78.2842 78.954 78.954C78.2842 79.6237 77.3758 80 76.4286 80H63.7314C58.7899 79.998 53.9478 78.6121 49.7535 75.9994C45.5592 73.3867 42.1804 69.6516 40 65.2171C37.8196 69.6516 34.4408 73.3867 30.2465 75.9994C26.0522 78.6121 21.2101 79.998 16.2686 80H3.57143C2.62423 80 1.71582 79.6237 1.04605 78.954C0.376274 78.2842 0 77.3758 0 76.4286C0 75.4814 0.376274 74.573 1.04605 73.9032C1.71582 73.2334 2.62423 72.8571 3.57143 72.8571H16.2686C21.0816 72.8569 25.7205 71.057 29.2742 67.811C32.8278 64.565 35.0393 60.1076 35.4743 55.3143L36.1314 48.08C36.1466 47.625 35.9916 47.1807 35.6966 46.834C35.4016 46.4873 34.9879 46.2631 34.5363 46.2052C34.0848 46.1474 33.6279 46.26 33.255 46.5211C32.8821 46.7822 32.62 47.173 32.52 47.6171L30.9543 57.0171C30.7982 57.9515 30.2773 58.7855 29.5063 59.3358C28.7352 59.8861 27.7772 60.1075 26.8429 59.9514C25.9085 59.7953 25.0745 59.2745 24.5242 58.5034C23.9739 57.7324 23.7525 56.7743 23.9086 55.84L25.4743 46.44C26 43.2629 28.08 40.8629 30.7143 39.7029V25.36C30.7099 24.6268 30.4283 23.9225 29.9259 23.3885C29.4236 22.8544 28.7378 22.5302 28.0063 22.481C27.2748 22.4318 26.5517 22.6612 25.9824 23.1232C25.4131 23.5852 25.0397 24.2455 24.9371 24.9714L21.3429 51.92C21.0453 54.1494 19.9486 56.1951 18.2565 57.677C16.5645 59.1588 14.3921 59.9762 12.1429 59.9771H3.57143C2.62423 59.9771 1.71582 59.6009 1.04605 58.9311C0.376274 58.2613 0 57.3529 0 56.4057C0 55.4585 0.376274 54.5501 1.04605 53.8803C1.71582 53.2106 2.62423 52.8343 3.57143 52.8343H12.1429C12.661 52.8334 13.1614 52.6447 13.5511 52.3033C13.9409 51.9618 14.1938 51.4907 14.2629 50.9771L17.8571 24.0286C18.1996 21.507 19.4863 19.2093 21.4573 17.5997C23.4283 15.9901 25.9367 15.1885 28.4759 15.3568C31.0151 15.5252 33.3957 16.6508 35.137 18.5065C36.8783 20.3622 37.8505 22.8096 37.8571 25.3543V39.6743C38.6282 40.0099 39.3493 40.4502 40 40.9829C40.6507 40.4502 41.3718 40.0099 42.1429 39.6743V25.36C42.1495 22.8153 43.1217 20.3679 44.863 18.5122C46.6043 16.6566 48.9849 15.5309 51.5241 15.3626C54.0633 15.1943 56.5717 15.9959 58.5427 17.6055C60.5137 19.2151 61.8004 21.5127 62.1429 24.0343L65.7371 50.9771C65.8051 51.4927 66.0582 51.966 66.4493 52.3087C66.8404 52.6515 67.3428 52.8403 67.8629 52.84H76.4286C77.3758 52.84 78.2842 53.2163 78.954 53.8861C79.6237 54.5558 80 55.4642 80 56.4114C80 57.3586 79.6237 58.267 78.954 58.9368C78.2842 59.6066 77.3758 59.9829 76.4286 59.9829H67.8571C65.6079 59.9819 63.4355 59.1645 61.7435 57.6827C60.0514 56.2008 58.9547 54.1552 58.6571 51.9257L55.0629 24.9714C54.9605 24.2459 54.5875 23.5859 54.0188 23.1239C53.45 22.6619 52.7276 22.4321 51.9965 22.4806C51.2654 22.529 50.5797 22.8522 50.0769 23.3852C49.5741 23.9182 49.2915 24.6216 49.2857 25.3543V39.6971C51.9143 40.8571 54 43.2571 54.5257 46.44L56.0971 55.8343C56.1744 56.2969 56.1599 56.7702 56.0542 57.2272C55.9486 57.6842 55.754 58.1159 55.4815 58.4977C54.9312 59.2688 54.0972 59.7896 53.1629 59.9457C52.7002 60.023 52.2269 60.0084 51.7699 59.9028C51.3129 59.7972 50.8812 59.6026 50.4994 59.3301C49.7284 58.7798 49.2075 57.9458 49.0514 57.0114L47.48 47.6171Z" fill="#F8F9FA"/>
</g>
<defs>
<clipPath id="clip0_3434_3149">
<rect width="80" height="80" fill="white"/>
</clipPath>
</defs>
</svg>
