<svg width="85" height="85" viewBox="0 0 85 85" fill="none" xmlns="http://www.w3.org/2000/svg">
<path d="M5.3125 14.1667V19.4792C5.3125 34.1772 13.1396 47.0334 24.7917 54.1876V70.8334H77.9167V63.7501C77.9167 54.3293 59.0396 49.5834 49.5833 49.5834H48.6979C31.875 49.5834 17.7083 35.4167 17.7083 19.4792V14.1667M49.5833 14.1667C45.8261 14.1667 42.2228 15.6593 39.566 18.3161C36.9092 20.9728 35.4167 24.5762 35.4167 28.3334C35.4167 32.0906 36.9092 35.694 39.566 38.3508C42.2228 41.0075 45.8261 42.5001 49.5833 42.5001C53.3406 42.5001 56.9439 41.0075 59.6007 38.3508C62.2574 35.694 63.75 32.0906 63.75 28.3334C63.75 24.5762 62.2574 20.9728 59.6007 18.3161C56.9439 15.6593 53.3406 14.1667 49.5833 14.1667Z" fill="#F8F9FA"/>
</svg>
