<svg width="25" height="25" viewBox="0 0 25 25" fill="none" xmlns="http://www.w3.org/2000/svg">
<path d="M12.5 21.875C14.3542 21.875 16.1668 21.3252 17.7085 20.295C19.2502 19.2649 20.4518 17.8007 21.1614 16.0877C21.8709 14.3746 22.0566 12.4896 21.6949 10.671C21.3331 8.85246 20.4402 7.182 19.1291 5.87088C17.818 4.55976 16.1475 3.66688 14.329 3.30514C12.5104 2.94341 10.6254 3.12906 8.91234 3.83863C7.19929 4.54821 5.73511 5.74982 4.70497 7.29153C3.67483 8.83324 3.125 10.6458 3.125 12.5C3.125 14.05 3.5 15.5104 4.16667 16.799L3.125 21.875L8.20104 20.8333C9.48854 21.499 10.951 21.875 12.5 21.875Z" stroke="black" stroke-opacity="0.35" stroke-width="1.5" stroke-linecap="round" stroke-linejoin="round"/>
</svg>
