<svg width="80" height="80" viewBox="0 0 80 80" fill="none" xmlns="http://www.w3.org/2000/svg">
<mask id="mask0_3434_3135" style="mask-type:luminance" maskUnits="userSpaceOnUse" x="8" y="9" width="63" height="59">
<path d="M40 66.6666C56.5683 66.6666 70 49.9999 70 49.9999C70 49.9999 56.5683 33.3333 40 33.3333C23.4317 33.3333 10 49.9999 10 49.9999C10 49.9999 23.4317 66.6666 40 66.6666Z" fill="white" stroke="white" stroke-width="2" stroke-linejoin="round"/>
<path d="M39.9999 56.6666C41.768 56.6666 43.4637 55.9642 44.714 54.714C45.9642 53.4637 46.6666 51.768 46.6666 49.9999C46.6666 48.2318 45.9642 46.5361 44.714 45.2859C43.4637 44.0356 41.768 43.3333 39.9999 43.3333C38.2318 43.3333 36.5361 44.0356 35.2859 45.2859C34.0356 46.5361 33.3333 48.2318 33.3333 49.9999C33.3333 51.768 34.0356 53.4637 35.2859 54.714C36.5361 55.9642 38.2318 56.6666 39.9999 56.6666Z" fill="black" stroke="black" stroke-width="2" stroke-linejoin="round"/>
<path d="M46.6666 10C35 10 16.6666 15.8333 11.6666 20C6.66665 24.1667 9.99998 31.6667 13.3333 30C16.6666 28.3333 38.6666 20.3333 46.6666 18.3333C54.6666 16.3333 66.1117 19.7217 70 21.6667C66.1117 18.3333 58.3333 10 46.6666 10Z" fill="white" stroke="white" stroke-width="2" stroke-linejoin="round"/>
</mask>
<g mask="url(#mask0_3434_3135)">
<path d="M0 0H80V80H0V0Z" fill="#F8F9FA"/>
</g>
</svg>
