<svg width="80" height="80" viewBox="0 0 80 80" fill="none" xmlns="http://www.w3.org/2000/svg">
<path d="M65 25H15C13.6739 25 12.4021 25.5268 11.4645 26.4645C10.5268 27.4021 10 28.6739 10 30V65C10 66.3261 10.5268 67.5979 11.4645 68.5355C12.4021 69.4732 13.6739 70 15 70H65C66.3261 70 67.5979 69.4732 68.5355 68.5355C69.4732 67.5979 70 66.3261 70 65V30C70 28.6739 69.4732 27.4021 68.5355 26.4645C67.5979 25.5268 66.3261 25 65 25ZM32.5 57.5V37.5L50 47.5L32.5 57.5ZM15 15H65V20H15V15ZM20 5H60V10H20V5Z" fill="#F8F9FA"/>
</svg>
