<svg width="85" height="85" viewBox="0 0 85 85" fill="none" xmlns="http://www.w3.org/2000/svg">
<path d="M42.5 56.6666C34.6871 56.6666 28.3334 50.3093 28.3334 42.4999V21.2499C28.3334 13.4405 34.6871 7.08325 42.5 7.08325C50.313 7.08325 56.6667 13.4405 56.6667 21.2499V42.4999C56.6667 50.3093 50.313 56.6666 42.5 56.6666ZM42.5 14.1666C38.5936 14.1666 35.4167 17.3399 35.4167 21.2499V42.4999C35.4167 46.4099 38.5936 49.5833 42.5 49.5833C46.4065 49.5833 49.5834 46.4099 49.5834 42.4999V21.2499C49.5834 17.3399 46.4065 14.1666 42.5 14.1666ZM67.2917 42.4999V35.4166C67.2917 34.4773 66.9186 33.5764 66.2544 32.9122C65.5902 32.2481 64.6894 31.8749 63.75 31.8749C62.8107 31.8749 61.9099 32.2481 61.2457 32.9122C60.5815 33.5764 60.2084 34.4773 60.2084 35.4166V42.4999C60.2084 52.2643 52.2644 60.2082 42.5 60.2082C32.7357 60.2082 24.7917 52.2643 24.7917 42.4999V35.4166C24.7917 34.4773 24.4186 33.5764 23.7544 32.9122C23.0902 32.2481 22.1893 31.8749 21.25 31.8749C20.3107 31.8749 19.4099 32.2481 18.7457 32.9122C18.0815 33.5764 17.7084 34.4773 17.7084 35.4166V42.4999C17.7084 54.9666 26.9627 65.2799 38.9584 67.0083V70.8332H28.3334C27.3941 70.8332 26.4932 71.2064 25.829 71.8706C25.1648 72.5348 24.7917 73.4356 24.7917 74.3749C24.7917 75.3142 25.1648 76.2151 25.829 76.8793C26.4932 77.5434 27.3941 77.9166 28.3334 77.9166H56.6667C57.606 77.9166 58.5069 77.5434 59.171 76.8793C59.8352 76.2151 60.2084 75.3142 60.2084 74.3749C60.2084 73.4356 59.8352 72.5348 59.171 71.8706C58.5069 71.2064 57.606 70.8332 56.6667 70.8332H46.0417V67.0083C58.0373 65.2799 67.2917 54.9666 67.2917 42.4999Z" fill="#F8F9FA"/>
</svg>
