<svg width="45" height="45" viewBox="0 0 45 45" fill="none" xmlns="http://www.w3.org/2000/svg">
<path d="M16.5 37.5V29.8126L20.0625 30.1876C21.0996 30.1299 22.0811 29.6999 22.8266 28.9765C23.572 28.2531 24.0313 27.285 24.12 26.2501V15.5626C24.1324 12.8613 23.0713 10.2658 21.17 8.34694C19.2688 6.42809 16.6831 5.34311 13.9819 5.33067C11.2806 5.31824 8.68511 6.37938 6.76626 8.28065C4.84741 10.1819 3.76243 12.7676 3.75 15.4688C3.75 20.7188 4.98 21.1951 5.625 24.0001C6.05868 25.6944 6.07734 27.4683 5.67938 29.1713L3.75 37.5M37.125 33.3751C39.7609 30.7388 41.2422 27.1639 41.2432 23.4359C41.2443 19.7079 39.765 16.1321 37.1306 13.4944M31.875 28.1251C32.4885 27.5117 32.9742 26.7829 33.3042 25.9806C33.6342 25.1784 33.8019 24.3187 33.7975 23.4512C33.7931 22.5838 33.6169 21.7258 33.2788 20.9269C32.9408 20.128 32.4477 19.4041 31.8281 18.7969" stroke="white" stroke-width="2" stroke-linecap="round" stroke-linejoin="round"/>
</svg>
