<svg width="30" height="30" viewBox="0 0 30 30" fill="none" xmlns="http://www.w3.org/2000/svg">
<path d="M23.2597 17.3341C22.9531 17.3341 22.6495 17.2739 22.3662 17.1566C22.0829 17.0394 21.8254 16.8675 21.6086 16.6507C21.3917 16.434 21.2196 16.1767 21.1022 15.8935C20.9848 15.6102 20.9243 15.3067 20.9242 15.0001C20.9241 14.6934 20.9844 14.3898 21.1016 14.1065C21.2189 13.8232 21.3908 13.5658 21.6075 13.3489C21.8242 13.132 22.0816 12.96 22.3648 12.8426C22.648 12.7251 22.9516 12.6646 23.2582 12.6646C23.8774 12.6644 24.4713 12.9101 24.9093 13.3479C25.3473 13.7856 25.5935 14.3793 25.5937 14.9986C25.5939 15.6178 25.3481 16.2117 24.9104 16.6497C24.4727 17.0877 23.8789 17.3339 23.2597 17.3341Z" fill="black" fill-opacity="0.35"/>
<path d="M15.2467 17.334C16.5358 17.334 17.5807 16.289 17.5807 15C17.5807 13.711 16.5358 12.666 15.2467 12.666C13.9577 12.666 12.9127 13.711 12.9127 15C12.9127 16.289 13.9577 17.334 15.2467 17.334Z" fill="black" fill-opacity="0.35"/>
<path d="M7.23219 17.334C8.52123 17.334 9.56619 16.289 9.56619 15C9.56619 13.711 8.52123 12.666 7.23219 12.666C5.94316 12.666 4.89819 13.711 4.89819 15C4.89819 16.289 5.94316 17.334 7.23219 17.334Z" fill="black" fill-opacity="0.35"/>
</svg>
