<svg width="55" height="55" viewBox="0 0 55 55" fill="none" xmlns="http://www.w3.org/2000/svg">
<g clip-path="url(#clip0_3423_2997)">
<path fill-rule="evenodd" clip-rule="evenodd" d="M45.6947 4.24006e-05C47.0353 4.24006e-05 48.125 1.08973 48.125 2.43035V6.87504H52.5697C53.0504 6.87494 53.5204 7.01742 53.9202 7.28446C54.3199 7.5515 54.6315 7.9311 54.8155 8.37524C54.9995 8.81939 55.0476 9.30812 54.9538 9.77963C54.86 10.2511 54.6284 10.6842 54.2884 11.0241L49.2697 16.0429C48.5369 16.774 47.5445 17.1855 46.5094 17.1875H41.4562L29.3219 29.3219C28.8331 29.7773 28.1867 30.0252 27.5188 30.0135C26.8509 30.0017 26.2136 29.7311 25.7413 29.2587C25.2689 28.7864 24.9984 28.1491 24.9866 27.4812C24.9748 26.8133 25.2227 26.1669 25.6781 25.6782L37.8125 13.5438V8.49067C37.8125 7.45598 38.225 6.46254 38.9572 5.72692L43.9759 0.708167C44.2009 0.481434 44.4687 0.301745 44.7638 0.179579C45.0588 0.0574127 45.3753 -0.00478747 45.6947 -0.0033951M8.59374 27.5C8.59338 24.6969 9.21634 21.9287 10.4175 19.396C11.6187 16.8632 13.3681 14.6293 15.539 12.8559C17.7098 11.0824 20.2479 9.81395 22.9694 9.14221C25.6908 8.47047 28.5276 8.4123 31.2744 8.97192C31.941 9.09911 32.6309 8.95834 33.1943 8.58014C33.7578 8.20194 34.1495 7.61681 34.2843 6.9517C34.4191 6.28659 34.2863 5.59514 33.9146 5.02735C33.5429 4.45957 32.9623 4.06124 32.2987 3.91879C27.2307 2.88841 21.9656 3.51829 17.2836 5.71507C12.6017 7.91185 8.7521 11.5586 6.30537 16.115C3.85865 20.6713 2.94501 25.8947 3.69985 31.011C4.4547 36.1273 6.83786 40.8643 10.4961 44.5199C14.1544 48.1755 18.8931 50.5552 24.01 51.3063C29.1269 52.0574 34.3496 51.1399 38.9041 48.6898C43.4586 46.2398 47.1026 42.3875 49.296 37.704C51.4893 33.0204 52.1153 27.7548 51.0812 22.6875C50.9449 22.0175 50.548 21.429 49.9778 21.0515C49.4076 20.6741 48.7109 20.5386 48.0408 20.6749C47.3707 20.8112 46.7822 21.2081 46.4047 21.7783C46.0273 22.3485 45.8918 23.0453 46.0281 23.7154C46.2779 24.9368 46.4039 26.1984 46.4062 27.5C46.4062 32.5143 44.4143 37.3232 40.8687 40.8688C37.3231 44.4144 32.5142 46.4063 27.5 46.4063C22.4857 46.4063 17.6769 44.4144 14.1313 40.8688C10.5856 37.3232 8.59374 32.5143 8.59374 27.5ZM27.0325 18.92C27.7153 18.8836 28.3557 18.5773 28.8128 18.0687C29.2699 17.5601 29.5061 16.8907 29.4697 16.2079C29.4332 15.525 29.127 14.8846 28.6183 14.4275C28.1097 13.9705 27.4403 13.7342 26.7575 13.7707C24.1172 13.913 21.574 14.8135 19.4325 16.3643C17.291 17.9152 15.6421 20.0506 14.6833 22.5148C13.7245 24.9789 13.4965 27.6672 14.0266 30.2576C14.5568 32.848 15.8225 35.2306 17.6723 37.1199C19.522 39.0093 21.8773 40.3252 24.4559 40.9101C27.0345 41.495 29.727 41.324 32.2109 40.4176C34.6948 39.5112 36.8646 37.9079 38.4605 35.7997C40.0564 33.6915 41.0106 31.1679 41.2087 28.5313C41.2593 27.8494 41.037 27.1752 40.5905 26.6573C40.1441 26.1393 39.5102 25.8199 38.8283 25.7693C38.1463 25.7187 37.4722 25.941 36.9542 26.3875C36.4363 26.8339 36.1168 27.4678 36.0662 28.1497C35.9409 29.7968 35.3435 31.3728 34.3456 32.6891C33.3477 34.0054 31.9915 35.0062 30.4396 35.5718C28.8876 36.1373 27.2055 36.2436 25.5947 35.8779C23.9839 35.5122 22.5126 34.69 21.3569 33.5098C20.2013 32.3295 19.4103 30.8412 19.0786 29.2231C18.7469 27.6049 18.8886 25.9254 19.4867 24.3857C20.0848 22.846 21.114 21.5112 22.451 20.5413C23.788 19.5713 25.3763 19.0073 27.0256 18.9166" fill="#E65255"/>
</g>
<defs>
<clipPath id="clip0_3423_2997">
<rect width="55" height="55" fill="white"/>
</clipPath>
</defs>
</svg>
