<svg width="70" height="70" viewBox="0 0 70 70" fill="none" xmlns="http://www.w3.org/2000/svg">
<path d="M53.4561 16.9536C52.4488 13.8634 48.1634 12.5829 40.7878 13.539C36.8781 8.48536 30.7317 6.60731 22.9122 9.15121C15.0927 11.6951 11.2171 16.8 10.961 23.1512C4.43904 26.7366 1.7244 30.2878 2.73172 33.3951C3.73904 36.5024 8.00733 37.7488 15.4 36.8097C19.2927 41.8122 25.3878 43.639 33.2586 41.1463C41.1293 38.6536 44.9537 33.4976 45.2098 27.1463C51.7317 23.578 54.4464 20.0268 53.4561 16.9536Z" fill="#48EEFF" stroke="#231F20" stroke-miterlimit="10"/>
<path d="M20.1805 35.7853C27.4276 34.3959 34.4714 32.1015 41.1464 28.9561" stroke="#231F20" stroke-miterlimit="10" stroke-linecap="round"/>
<path d="M17.3805 18.883C17.3805 19.6256 17.6755 20.3378 18.2006 20.8629C18.7257 21.388 19.4379 21.683 20.1805 21.683C20.9231 21.683 21.6353 21.388 22.1604 20.8629C22.6855 20.3378 22.9805 19.6256 22.9805 18.883C22.9805 18.1404 22.6855 17.4282 22.1604 16.9031C21.6353 16.378 20.9231 16.083 20.1805 16.083C19.4379 16.083 18.7257 16.378 18.2006 16.9031C17.6755 17.4282 17.3805 18.1404 17.3805 18.883ZM31.2781 19.2415C31.2781 19.7985 31.4993 20.3326 31.8931 20.7265C32.287 21.1203 32.8211 21.3415 33.3781 21.3415C33.935 21.3415 34.4692 21.1203 34.863 20.7265C35.2568 20.3326 35.4781 19.7985 35.4781 19.2415C35.4781 18.6846 35.2568 18.1504 34.863 17.7566C34.4692 17.3628 33.935 17.1415 33.3781 17.1415C32.8211 17.1415 32.287 17.3628 31.8931 17.7566C31.4993 18.1504 31.2781 18.6846 31.2781 19.2415Z" fill="white" stroke="#231F20" stroke-miterlimit="10"/>
<path d="M46.8146 19.2415C39.0805 23.9878 18.917 30.5268 9.8512 31.1927M10.9951 23.1512C11.0702 24.6297 11.3349 26.0929 11.7805 27.5049M40.7878 13.4878C41.3516 14.4559 41.7986 15.4875 42.1195 16.561" stroke="#231F20" stroke-miterlimit="10" stroke-linecap="round"/>
<path d="M29.2805 11.1829C31.5572 10.9476 33.8411 11.555 35.7 12.8902" stroke="white" stroke-miterlimit="10" stroke-linecap="round"/>
<path d="M64.2293 36.0926C63.3058 33.1658 62.1644 30.3123 60.8146 27.556C59.9098 26.0536 57.7585 26.5829 56.5463 27.0268C55.3342 27.4707 53.6268 28.2902 53.5756 29.7926C51.5439 30.339 48.8463 31.278 46.4561 32.1316C42.4268 33.5829 37.5781 35.3926 36.9293 36.4512C36.6563 36.7734 36.4556 37.1505 36.3407 37.557C36.2259 37.9634 36.1995 38.3898 36.2634 38.8073C33.6131 39.7372 31.1071 41.0361 28.8195 42.6658C28.5053 42.934 28.2559 43.2701 28.0903 43.6486C27.9247 44.0271 27.8471 44.4383 27.8634 44.8512C26.7306 45.258 25.6658 45.8336 24.7049 46.5585C23.8171 47.2585 24.2268 49.017 24.7049 50.2975C25.1829 51.578 25.9683 53.1999 27.0781 53.1658C28.2922 53.1327 29.4947 52.9198 30.6464 52.5341C30.8982 52.8612 31.2213 53.1265 31.5911 53.31C31.9609 53.4934 32.3677 53.5901 32.7805 53.5926C34.6902 53.5432 36.5825 53.2154 38.3976 52.6194C38.5905 53.2273 38.8722 53.8026 39.2342 54.3268C38.3794 55.8133 37.6281 57.3499 36.9805 58.9365C36.2205 60.6983 35.6482 62.5353 35.2732 64.417C35.0854 65.4926 36.1098 66.1243 36.9805 66.4829C37.8512 66.8414 38.9951 67.0975 39.6268 66.2097C40.6798 64.6016 41.5557 62.8843 42.239 61.0877C42.7683 59.8243 43.2805 58.3731 43.622 57.2634C44.1 57.3658 44.5837 57.417 45.0732 57.417C45.5683 57.4193 46.0577 57.3681 46.5415 57.2634C46.8943 58.5723 47.3155 59.8585 47.8049 61.1219C48.504 62.9115 49.379 64.6272 50.4171 66.2438C51.0488 67.1316 52.2439 66.8585 53.0805 66.517C53.9171 66.1755 54.9585 65.5268 54.7878 64.4512C54.4178 62.5682 53.8454 60.7307 53.0805 58.9707C52.4471 57.3829 51.6976 55.8412 50.8439 54.3609C51.5225 53.3436 51.9228 52.1664 52.0049 50.9463L53.1146 50.5536C55.5049 49.6999 58.2366 48.7097 60.0976 47.8219C61.0878 48.9658 63.0171 48.4877 64.1439 48.0951C65.2707 47.7024 67.3707 46.6951 67.0976 44.9707C66.3856 41.9379 65.4263 38.9687 64.2293 36.0926Z" fill="#FF52A1" stroke="#231F20" stroke-miterlimit="10"/>
<path d="M42.1536 50.4343C42.1536 51.1769 42.4486 51.8891 42.9737 52.4142C43.4988 52.9393 44.211 53.2343 44.9536 53.2343C45.6962 53.2343 46.4084 52.9393 46.9335 52.4142C47.4586 51.8891 47.7536 51.1769 47.7536 50.4343C47.7536 49.6917 47.4586 48.9795 46.9335 48.4544C46.4084 47.9293 45.6962 47.6343 44.9536 47.6343C44.211 47.6343 43.4988 47.9293 42.9737 48.4544C42.4486 48.9795 42.1536 49.6917 42.1536 50.4343Z" fill="white" stroke="#231F20" stroke-miterlimit="10"/>
<path d="M54.8391 33.6172C55.8546 37.2162 57.1153 40.7415 58.6123 44.1684M36.2123 38.7391C36.8201 41.756 37.6293 44.7267 38.6366 47.6343M27.8123 44.783C27.8771 45.6452 28.0786 46.4938 28.4098 47.2928" stroke="#231F20" stroke-miterlimit="10" stroke-linecap="round"/>
<path d="M57.3147 29.4171C59.2098 28.7853 58.783 29.6049 60.422 33.3097" stroke="white" stroke-miterlimit="10" stroke-linecap="round"/>
<path d="M65.0147 8.7416C65.0147 7.80258 64.0415 7.03428 61.3952 6.74404C61.1391 4.0977 60.3366 3.1416 59.3976 3.1416C58.4586 3.1416 57.6903 4.0977 57.383 6.74404C54.7537 7.00014 53.7805 7.80258 53.7805 8.7416C53.7805 9.68063 54.7537 10.4489 57.383 10.7562C57.6561 13.3855 58.4415 14.3587 59.3976 14.3587C60.3537 14.3587 61.1049 13.3855 61.3952 10.7562C64.0415 10.4831 65.0147 9.6977 65.0147 8.7416Z" fill="#FFE236" stroke="#231F20" stroke-miterlimit="10"/>
<path d="M43.4854 6.67568C43.4854 7.23264 43.7066 7.76678 44.1004 8.16061C44.4943 8.55443 45.0284 8.77568 45.5854 8.77568C46.1423 8.77568 46.6765 8.55443 47.0703 8.16061C47.4641 7.76678 47.6854 7.23264 47.6854 6.67568C47.6854 6.11873 47.4641 5.58459 47.0703 5.19076C46.6765 4.79693 46.1423 4.57568 45.5854 4.57568C45.0284 4.57568 44.4943 4.79693 44.1004 5.19076C43.7066 5.58459 43.4854 6.11873 43.4854 6.67568ZM63.5805 20.0269C63.5805 20.765 63.8737 21.4728 64.3956 21.9947C64.9175 22.5166 65.6253 22.8098 66.3634 22.8098C67.1015 22.8098 67.8093 22.5166 68.3312 21.9947C68.8531 21.4728 69.1463 20.765 69.1463 20.0269C69.1463 19.2888 68.8531 18.581 68.3312 18.0591C67.8093 17.5372 67.1015 17.244 66.3634 17.244C65.6253 17.244 64.9175 17.5372 64.3956 18.0591C63.8737 18.581 63.5805 19.2888 63.5805 20.0269Z" fill="#FFE236" stroke="#231F20" stroke-miterlimit="10" stroke-linecap="round"/>
</svg>
