<svg width="28" height="28" viewBox="0 0 28 28" fill="none" xmlns="http://www.w3.org/2000/svg">
<path fill-rule="evenodd" clip-rule="evenodd" d="M21.8342 19.3855L25.4921 23.0434L24.2689 24.2677L4.68487 4.68596L5.90801 3.46167L9.0697 6.62106C10.5989 6.05585 12.2165 5.76749 13.8469 5.76948C19.3948 5.76948 24.1997 9.05579 26.5398 13.8468C25.4629 16.06 23.8443 17.9652 21.8342 19.3855ZM12.4899 10.0424L17.6513 15.2038C17.9088 14.4836 17.9565 13.705 17.7888 12.9588C17.6211 12.2125 17.245 11.5292 16.7041 10.9884C16.1633 10.4475 15.48 10.0714 14.7337 9.90371C13.9875 9.73604 13.2089 9.78372 12.4887 10.0412L12.4899 10.0424ZM18.6252 21.0737C17.0955 21.6386 15.4775 21.9266 13.8469 21.9241C8.2989 21.9241 3.49405 18.6378 1.15393 13.8468C2.23083 11.6336 3.84946 9.72842 5.85955 8.30806L10.0424 12.4898C9.78495 13.21 9.73726 13.9886 9.90493 14.7348C10.0726 15.4811 10.4487 16.1644 10.9896 16.7052C11.5304 17.2461 12.2137 17.6222 12.96 17.7899C13.7063 17.9576 14.4848 17.9099 15.205 17.6524L18.6252 21.0725V21.0737Z" fill="black"/>
</svg>
