<svg width="25" height="25" viewBox="0 0 25 25" fill="none" xmlns="http://www.w3.org/2000/svg">
<path d="M17.7084 22.9168C16.8403 22.9168 16.1025 22.613 15.4948 22.0054C14.8872 21.3977 14.5834 20.6599 14.5834 19.7918C14.5834 19.6877 14.6094 19.4446 14.6615 19.0627L7.34379 14.7918C7.06601 15.0522 6.74483 15.2564 6.38025 15.4043C6.01567 15.5522 5.62504 15.6259 5.20837 15.6252C4.34032 15.6252 3.60247 15.3213 2.99483 14.7137C2.38719 14.1061 2.08337 13.3682 2.08337 12.5002C2.08337 11.6321 2.38719 10.8943 2.99483 10.2866C3.60247 9.67898 4.34032 9.37516 5.20837 9.37516C5.62504 9.37516 6.01567 9.44912 6.38025 9.59704C6.74483 9.74496 7.06601 9.94877 7.34379 10.2085L14.6615 5.93766C14.6268 5.81614 14.6052 5.69912 14.5969 5.58662C14.5886 5.47412 14.5841 5.34808 14.5834 5.2085C14.5834 4.34044 14.8872 3.60259 15.4948 2.99495C16.1025 2.38732 16.8403 2.0835 17.7084 2.0835C18.5764 2.0835 19.3143 2.38732 19.9219 2.99495C20.5296 3.60259 20.8334 4.34044 20.8334 5.2085C20.8334 6.07655 20.5296 6.8144 19.9219 7.42204C19.3143 8.02968 18.5764 8.3335 17.7084 8.3335C17.2917 8.3335 16.9011 8.25954 16.5365 8.11162C16.1719 7.96371 15.8507 7.75989 15.573 7.50016L8.25525 11.771C8.28997 11.8925 8.31185 12.0099 8.32087 12.1231C8.3299 12.2363 8.33407 12.362 8.33337 12.5002C8.33268 12.6384 8.32851 12.7644 8.32087 12.8783C8.31323 12.9922 8.29136 13.1092 8.25525 13.2293L15.573 17.5002C15.8507 17.2397 16.1719 17.0359 16.5365 16.8887C16.9011 16.7415 17.2917 16.6675 17.7084 16.6668C18.5764 16.6668 19.3143 16.9706 19.9219 17.5783C20.5296 18.1859 20.8334 18.9238 20.8334 19.7918C20.8334 20.6599 20.5296 21.3977 19.9219 22.0054C19.3143 22.613 18.5764 22.9168 17.7084 22.9168ZM17.7084 20.8335C18.0035 20.8335 18.2511 20.7338 18.4511 20.5345C18.6511 20.3352 18.7507 20.0877 18.75 19.7918C18.7493 19.496 18.6493 19.2488 18.45 19.0502C18.2507 18.8516 18.0035 18.7516 17.7084 18.7502C17.4132 18.7488 17.166 18.8488 16.9667 19.0502C16.7674 19.2516 16.6674 19.4988 16.6667 19.7918C16.666 20.0849 16.766 20.3325 16.9667 20.5345C17.1674 20.7366 17.4146 20.8363 17.7084 20.8335ZM5.20837 13.5418C5.50351 13.5418 5.75108 13.4418 5.95108 13.2418C6.15108 13.0418 6.25073 12.7946 6.25004 12.5002C6.24935 12.2057 6.14935 11.9585 5.95004 11.7585C5.75073 11.5585 5.50351 11.4585 5.20837 11.4585C4.91323 11.4585 4.66601 11.5585 4.46671 11.7585C4.2674 11.9585 4.1674 12.2057 4.16671 12.5002C4.16601 12.7946 4.26601 13.0422 4.46671 13.2429C4.6674 13.4436 4.91462 13.5432 5.20837 13.5418ZM17.7084 6.25016C18.0035 6.25016 18.2511 6.15016 18.4511 5.95016C18.6511 5.75016 18.7507 5.50294 18.75 5.2085C18.7493 4.91405 18.6493 4.66683 18.45 4.46683C18.2507 4.26683 18.0035 4.16683 17.7084 4.16683C17.4132 4.16683 17.166 4.26683 16.9667 4.46683C16.7674 4.66683 16.6674 4.91405 16.6667 5.2085C16.666 5.50294 16.766 5.75051 16.9667 5.9512C17.1674 6.1519 17.4146 6.25155 17.7084 6.25016Z" fill="black" fill-opacity="0.5"/>
</svg>
