<svg width="70" height="70" viewBox="0 0 70 70" fill="none" xmlns="http://www.w3.org/2000/svg">
<path opacity="0.2" fill-rule="evenodd" clip-rule="evenodd" d="M40.25 55.65L24.0275 63L25.893 45.045L14 31.64L31.3775 27.895L40.25 12.25L49.1225 27.8915L66.5 31.6365L54.607 45.045L56.4725 63L40.25 55.65Z" fill="black" stroke="black" stroke-linecap="round" stroke-linejoin="round"/>
<path fill-rule="evenodd" clip-rule="evenodd" d="M19.4984 61.0927L34.9999 54.0682L50.5014 61.0927C50.7819 61.2201 51.0911 61.2711 51.3977 61.2406C51.7043 61.2102 51.9975 61.0993 52.2475 60.9193C52.4975 60.7392 52.6955 60.4963 52.8216 60.2152C52.9477 59.9341 52.9973 59.6246 52.9654 59.3182L51.1804 42.1332L62.5589 29.2952C62.7612 29.0664 62.9002 28.7887 62.9619 28.4896C63.0237 28.1905 63.0061 27.8805 62.9109 27.5903C62.8157 27.3001 62.6462 27.0399 62.4193 26.8355C62.1924 26.6311 61.9159 26.4896 61.6174 26.4252L45.0099 22.8447L36.5224 7.88569C36.3698 7.61637 36.1484 7.39236 35.881 7.2365C35.6135 7.08065 35.3095 6.99854 34.9999 6.99854C34.6903 6.99854 34.3863 7.08065 34.1188 7.2365C33.8514 7.39236 33.63 7.61637 33.4774 7.88569L24.9899 22.8447L8.3824 26.4252C8.08359 26.4892 7.80674 26.6303 7.57939 26.8345C7.35205 27.0387 7.18214 27.2988 7.08657 27.5891C6.991 27.8794 6.9731 28.1896 7.03465 28.4889C7.0962 28.7882 7.23505 29.0662 7.4374 29.2952L18.8229 42.1297L17.0379 59.3182C17.0064 59.6242 17.0561 59.9331 17.182 60.2138C17.3079 60.4944 17.5055 60.737 17.755 60.9169C18.0045 61.0969 18.2971 61.2079 18.6031 61.2387C18.9092 61.2696 19.218 61.2192 19.4984 61.0927ZM34.2789 50.5577L20.8319 56.6477L22.3824 41.7272C22.4079 41.4856 22.3828 41.2413 22.3086 41.0099C22.2345 40.7785 22.113 40.5651 21.9519 40.3832L12.0469 29.2147L26.4949 26.0997C26.7363 26.048 26.964 25.9457 27.163 25.7998C27.3621 25.6538 27.528 25.4674 27.6499 25.2527L34.9999 12.2957L42.3499 25.2527C42.4718 25.4674 42.6377 25.6538 42.8368 25.7998C43.0358 25.9457 43.2635 26.048 43.5049 26.0997L57.9529 29.2147L48.0479 40.3832C47.8868 40.5651 47.7653 40.7785 47.6912 41.0099C47.617 41.2413 47.5919 41.4856 47.6174 41.7272L49.1679 56.6477L35.7209 50.5577C35.4943 50.4552 35.2485 50.4023 34.9999 50.4023C34.7513 50.4023 34.5055 50.4552 34.2789 50.5577Z" fill="black"/>
</svg>
