<svg width="50" height="50" viewBox="0 0 50 50" fill="none" xmlns="http://www.w3.org/2000/svg">
<path d="M42.0251 14.0627H38.148L28.6355 23.571C28.9631 24.406 28.9933 25.3284 28.7208 26.1829C28.4484 27.0375 27.89 27.7722 27.1396 28.2635C26.3891 28.7548 25.4924 28.9727 24.6002 28.8806C23.708 28.7885 22.8747 28.392 22.2404 27.7578C21.6062 27.1235 21.2097 26.2902 21.1176 25.398C21.0255 24.5058 21.2434 23.6091 21.7347 22.8587C22.226 22.1082 22.9607 21.5498 23.8153 21.2774C24.6699 21.005 25.5922 21.0351 26.4272 21.3627L35.9376 11.8523V7.97522C35.9378 7.45642 36.1438 6.9589 36.5105 6.59188L40.1147 2.98772C40.1814 2.92059 40.2651 2.8729 40.3569 2.84977C40.4486 2.82665 40.5449 2.82896 40.6355 2.85647C40.8209 2.91063 40.9584 3.0648 40.9959 3.25438L41.9542 8.04813L46.7459 9.00647C46.9334 9.04397 47.0876 9.18147 47.1417 9.36688C47.1691 9.45695 47.1715 9.55275 47.1488 9.64409C47.126 9.73544 47.079 9.81891 47.0126 9.88563L43.4063 13.4898C43.0398 13.856 42.5432 14.062 42.0251 14.0627Z" fill="#F8F9FA"/>
<path d="M5.46875 25C5.46875 30.18 7.5265 35.1479 11.1893 38.8107C14.8521 42.4735 19.82 44.5313 25 44.5313C27.5649 44.5313 30.1046 44.0261 32.4743 43.0445C34.8439 42.063 36.997 40.6243 38.8107 38.8107C40.6243 36.997 42.063 34.8439 43.0445 32.4743C44.0261 30.1047 44.5312 27.5649 44.5312 25C44.5312 23.1292 44.2687 21.3208 43.7792 19.6104C43.6818 19.2177 43.7407 18.8025 43.9432 18.4523C44.1458 18.1021 44.4764 17.8441 44.8653 17.7326C45.2542 17.6211 45.6713 17.6649 46.0286 17.8546C46.386 18.0444 46.6558 18.3654 46.7812 18.75C47.3521 20.7375 47.6562 22.8333 47.6562 25C47.6562 37.5125 37.5125 47.6563 25 47.6563C12.4875 47.6563 2.34375 37.5125 2.34375 25C2.34375 12.4875 12.4875 2.34376 25 2.34376C27.1146 2.34168 29.2167 2.63543 31.25 3.21668C31.4483 3.27229 31.6336 3.36654 31.7953 3.49401C31.957 3.62148 32.0919 3.77966 32.1923 3.95944C32.2926 4.13923 32.3565 4.33708 32.3801 4.54163C32.4038 4.74617 32.3868 4.95337 32.3301 5.15132C32.2734 5.34927 32.1781 5.53406 32.0498 5.69507C31.9214 5.85608 31.7625 5.99014 31.5822 6.08953C31.4019 6.18892 31.2037 6.25169 30.999 6.27422C30.7943 6.29676 30.5872 6.27862 30.3896 6.22084C28.6368 5.72055 26.8228 5.46741 25 5.46876C19.82 5.46876 14.8521 7.52651 11.1893 11.1893C7.5265 14.8522 5.46875 19.82 5.46875 25Z" fill="#F8F9FA"/>
<path d="M14.8439 25.0001C14.8497 26.3799 15.1367 27.7441 15.6873 29.0093C16.2379 30.2745 17.0407 31.4143 18.0465 32.3589C19.0523 33.3035 20.2401 34.0333 21.5373 34.5035C22.8345 34.9738 24.214 35.1747 25.5915 35.0941C26.969 35.0134 28.3156 34.6528 29.5491 34.0344C30.7826 33.4159 31.8771 32.5525 32.7658 31.497C33.6545 30.4414 34.3187 29.2158 34.7179 27.8949C35.1171 26.5741 35.2429 25.1857 35.0876 23.8146C35.0439 23.537 35.076 23.2526 35.1807 22.9917C35.2854 22.7308 35.4588 22.5031 35.6823 22.3327C35.9059 22.1623 36.1714 22.0556 36.4507 22.0238C36.73 21.992 37.0127 22.0363 37.2689 22.1521C37.7918 22.3855 38.1439 22.8834 38.1897 23.4542C38.5132 26.1943 37.975 28.9671 36.6499 31.3872C35.3248 33.8073 33.2787 35.7545 30.7959 36.9581C28.3131 38.1617 25.517 38.5619 22.7963 38.103C20.0756 37.6442 17.5654 36.3492 15.6147 34.398C13.6645 32.4489 12.3691 29.9412 11.9083 27.2227C11.4475 24.5043 11.844 21.7098 13.0429 19.2268C14.2418 16.7439 16.1836 14.6955 18.599 13.3659C21.0145 12.0362 23.7839 11.4912 26.523 11.8063C26.7301 11.8255 26.9313 11.8859 27.1147 11.9838C27.2981 12.0818 27.4602 12.2154 27.5913 12.3768C27.7225 12.5382 27.8201 12.7241 27.8784 12.9238C27.9368 13.1234 27.9547 13.3326 27.9311 13.5392C27.9075 13.7459 27.8429 13.9457 27.7411 14.127C27.6393 14.3084 27.5023 14.4676 27.3382 14.5953C27.1741 14.723 26.9861 14.8167 26.7853 14.8708C26.5845 14.9249 26.3749 14.9384 26.1689 14.9105C24.746 14.746 23.3044 14.8842 21.9388 15.3162C20.5731 15.7481 19.3143 16.464 18.2448 17.4168C17.1753 18.3696 16.3194 19.5378 15.7333 20.8447C15.1472 22.1516 14.8441 23.5677 14.8439 25.0001Z" fill="#F8F9FA"/>
</svg>
