<svg width="70" height="70" viewBox="0 0 70 70" fill="none" xmlns="http://www.w3.org/2000/svg">
<path d="M52.2157 61.6107H17.7516L21.093 49.1201H48.8742L52.2157 61.6107Z" fill="#2F2F2F"/>
<path d="M52.2375 63.2625H17.7516C17.2375 63.2625 16.7508 63.0219 16.4445 62.6172C16.1328 62.2125 16.0289 61.682 16.1602 61.1844L19.5016 48.6937C19.5956 48.3421 19.8031 48.0314 20.0919 47.8099C20.3806 47.5884 20.7345 47.4685 21.0984 47.4688H48.8797C49.6289 47.4688 50.2852 47.9719 50.4766 48.6937L53.7469 60.9219C53.8399 61.1297 53.8945 61.3648 53.8945 61.6055C53.8891 62.5188 53.1508 63.2625 52.2375 63.2625ZM19.9008 59.9539H50.061L47.6055 50.7664H22.3617L19.9008 59.9539Z" fill="#2F2F2F"/>
<path d="M13.3547 61.6108H56.6071V66.1772H13.3547V61.6108Z" fill="#2F2F2F"/>
<path d="M56.607 67.829H13.3547C12.4414 67.829 11.7031 67.0907 11.7031 66.1774V61.611C11.7031 60.6978 12.4414 59.9595 13.3547 59.9595H56.607C57.5203 59.9595 58.2586 60.6978 58.2586 61.611V66.1774C58.2586 67.0907 57.5203 67.829 56.607 67.829ZM15.0063 64.5259H54.9555V63.2626H15.0063V64.5259Z" fill="#2F2F2F"/>
<path d="M43.0664 53.8726H26.9063C26.3484 53.8726 25.8945 54.3265 25.8945 54.8843V59.4507C25.8945 60.0085 26.3484 60.4624 26.9063 60.4624H43.0664C43.6242 60.4624 44.0781 60.0085 44.0781 59.4507V54.8843C44.0781 54.616 43.9715 54.3586 43.7818 54.1689C43.5921 53.9791 43.3347 53.8726 43.0664 53.8726Z" fill="#FCC21B"/>
<path d="M11.036 10.1118C10.0078 10.1118 9.02894 10.2923 8.1266 10.6478C4.32035 12.1626 3.2266 16.4774 4.118 19.9556C4.86175 22.8649 7.46488 25.1126 9.71254 26.0532C10.2266 26.2665 10.7516 26.4306 11.2602 26.5892C11.7633 26.7423 12.2336 26.8899 12.693 27.0813C13.3766 27.3657 14.0164 27.9181 14.3555 28.5251C14.6946 29.1376 14.6071 29.4767 14.4211 30.1548C14.3719 30.3353 14.3227 30.5321 14.2735 30.7399C14.1696 31.2212 14.093 31.7899 14.268 32.3532C14.5469 33.272 15.2524 33.8407 16.1 33.8407C17.6586 33.797 18.8399 32.5282 19.3977 30.3462L19.4032 30.3298L19.425 30.2368C19.6493 29.3454 19.7039 28.5415 19.5727 27.8251C19.4578 27.1579 19.2282 26.5618 18.9 26.0478C17.7789 24.2978 15.9907 23.286 14.2516 22.4001C13.9453 22.2415 13.6336 22.0938 13.3219 21.9462C12.2118 21.4157 11.0578 20.8634 10.243 19.9993C9.55941 19.272 9.3516 18.2657 9.69066 17.3688C10.0078 16.5267 10.7243 15.9962 11.6485 15.9142C11.7524 15.9032 11.8563 15.8978 11.9547 15.8978C14.3336 15.8978 15.8375 18.4188 17.0407 20.4423L17.15 20.6228L17.9868 22.0228L18.2274 20.4095C18.3039 19.9118 18.3696 19.3813 18.3696 18.8673C18.3641 18.5118 18.375 18.1454 18.3805 17.7845C18.4297 15.5259 18.4844 12.972 16.0071 11.5118C14.4813 10.6095 12.7149 10.1118 11.036 10.1118ZM51.0016 27.9235C51.1 27.3603 51.2914 26.8243 51.5922 26.3595C52.6422 24.7243 54.3321 23.7728 56.0164 22.9142C57.4493 22.1813 59.0571 21.5853 60.1836 20.3931C61.9063 18.5665 60.9493 15.5478 58.4063 15.3235C55.3985 15.061 53.6594 18.1235 52.3524 20.3165C52.2813 19.8462 52.2157 19.3431 52.2157 18.8673C52.2375 16.3243 51.7453 13.5134 54.2883 12.0095C56.4485 10.7298 59.2539 10.2431 61.6493 11.1892C65.0672 12.5454 66.161 16.4774 65.3133 19.8079C64.668 22.329 62.3875 24.5384 60.0578 25.5118C59.0844 25.9165 58.0508 26.1353 57.0774 26.5399C56.2953 26.8626 55.5461 27.4915 55.1305 28.2353C54.5563 29.2579 54.9282 29.8485 55.1524 30.8657C55.2453 31.2978 55.3055 31.7517 55.1743 32.1782C54.9883 32.7853 54.5289 33.272 53.8618 33.2556C52.2758 33.2118 51.4883 31.4782 51.1547 30.1712C51.1488 30.1592 51.1451 30.1462 51.1438 30.1329C50.9743 29.422 50.8703 28.6509 51.0016 27.9235Z" fill="#FCC21B"/>
<path d="M58.9641 10.1118C57.2852 10.1118 55.5243 10.604 53.9985 11.5063C51.5266 12.9665 51.5813 15.5204 51.6251 17.779C51.6305 18.1399 51.6415 18.5063 51.636 18.8618C51.636 19.3759 51.7016 19.9063 51.7782 20.404L52.0188 22.0173L52.8555 20.6173L52.9649 20.4368C54.168 18.4134 55.6719 15.8923 58.0508 15.8923C58.1493 15.8923 58.2532 15.8978 58.3571 15.9087C59.2813 15.9907 59.9977 16.5157 60.3149 17.3634C60.6594 18.2657 60.4461 19.272 59.7625 19.9938C58.9422 20.8579 57.7938 21.4103 56.6836 21.9407C56.3665 22.0938 56.0547 22.2415 55.7485 22.3946C54.0094 23.2806 52.2211 24.2923 51.1001 26.0478C50.7719 26.5563 50.5422 27.1579 50.4274 27.8251C50.2961 28.5415 50.3508 29.3399 50.586 30.2751L50.5969 30.3079L50.6024 30.3298C51.1602 32.5173 52.3415 33.797 53.8508 33.8407C54.7532 33.8407 55.4532 33.272 55.7375 32.3532C55.9125 31.7899 55.8305 31.2267 55.7321 30.7454C55.6829 30.5321 55.6336 30.3353 55.579 30.1548C55.393 29.4767 55.3 29.1321 55.6446 28.5196C55.9836 27.9126 56.6235 27.3603 57.3071 27.0759C57.7665 26.8845 58.2368 26.7423 58.7399 26.5837C59.2485 26.4251 59.779 26.261 60.2875 26.0478C62.5407 25.1126 65.1383 22.8595 65.8821 19.9501C66.7735 16.472 65.6743 12.1571 61.868 10.6478C60.9711 10.2923 59.9922 10.1118 58.9641 10.1118Z" fill="#FCC21B"/>
<path d="M51.8602 9.63086C48.7375 6.74336 43.8758 5.34336 39.7415 5.0207C38.161 4.89492 36.5696 4.85117 34.9836 4.8457C33.3977 4.85664 31.8063 4.90039 30.2258 5.0207C26.0969 5.34336 21.2297 6.74336 18.1071 9.63086C16.2586 11.3371 16.7782 14.3066 17.0079 16.5488C17.429 20.6504 18.2274 26.1027 20.9891 29.3676C21.7875 30.3137 22.6079 31.1996 23.5047 31.9871C24.5165 32.8676 25.4297 33.8848 26.4579 34.7652C27.7211 35.848 29.154 37.0621 29.411 38.7957C29.7774 41.2785 28.1094 41.9676 26.1954 42.8316C24.85 43.4387 23.3735 44.8715 23.9258 46.4902C24.5165 48.2184 27.0266 47.8574 28.4485 47.9504C32.561 48.2184 36.6899 48.0488 40.8079 47.9285C42.2352 47.8848 46.1016 48.0652 46.1016 45.8559C46.1016 45.0629 45.7297 44.3082 45.161 43.7668C44.7563 43.384 44.2805 43.0668 43.7719 42.8371C41.8579 41.973 40.1844 41.284 40.5563 38.8012C40.8188 37.0676 42.2461 35.8535 43.5094 34.7707C44.5375 33.8902 45.4508 32.8785 46.4625 31.9926C47.3594 31.2051 48.1797 30.3191 48.9836 29.373C51.7399 26.1082 52.5383 20.6559 52.9649 16.5543C53.1891 14.3012 53.7032 11.3371 51.8602 9.63086ZM34.9836 16.0676C27.1305 16.0676 20.7649 14.2793 20.7649 12.0699C20.7649 9.86055 27.1305 8.07227 34.9836 8.07227C42.8368 8.07227 49.2024 9.86055 49.2024 12.0699C49.2024 14.2738 42.8368 16.0676 34.9836 16.0676Z" fill="#FCC21B"/>
<path d="M34.9836 4.25488C33.1188 4.26582 31.593 4.32051 30.1821 4.43535C25.1782 4.8291 20.5133 6.61191 17.7133 9.2041C15.8047 10.9705 16.1164 13.7814 16.368 16.04L16.4282 16.6143C16.9039 21.2627 17.7625 26.4635 20.5461 29.7502C21.4813 30.8549 22.3016 31.708 23.1274 32.4299C23.5977 32.84 24.0625 33.2994 24.511 33.7369C25.0141 34.2291 25.5336 34.7377 26.086 35.208C27.3492 36.2908 28.618 37.3791 28.8422 38.883C29.1266 40.7807 28.093 41.3439 26.0969 42.2408L25.9602 42.301C24.2594 43.0666 22.7282 44.7619 23.3789 46.6814C23.9914 48.4916 26.075 48.508 27.5953 48.5189C27.8907 48.5189 28.1696 48.5189 28.4157 48.5354C29.9032 48.6338 31.5055 48.683 33.2992 48.683C35.443 48.683 37.6141 48.6174 39.7196 48.5463L40.8297 48.5135C40.961 48.508 41.1141 48.508 41.2836 48.508C43.0391 48.4861 46.6868 48.4369 46.6868 45.8557C46.6868 44.9369 46.2766 44.0236 45.5657 43.3455C45.1227 42.9244 44.5867 42.5635 44.018 42.3064L43.8813 42.2463C41.8852 41.3439 40.8571 40.7861 41.136 38.8885C41.3602 37.3791 42.6344 36.2908 43.8649 35.2408C44.4446 34.7432 44.9641 34.2346 45.4672 33.7424C45.9157 33.3049 46.3805 32.8455 46.8508 32.4354C47.6711 31.7189 48.4914 30.8658 49.4375 29.7557C52.2102 26.4744 53.0742 21.2736 53.55 16.6197L53.6157 16.04C53.8618 13.7869 54.1735 10.976 52.2703 9.21504C49.4703 6.62285 44.8055 4.84004 39.8016 4.44629C38.3742 4.32598 36.8485 4.26582 34.9836 4.25488ZM34.9836 15.4822C26.5344 15.4822 21.35 13.4916 21.35 12.0697C21.35 10.6424 26.5399 8.65723 34.9836 8.65723C43.4328 8.65723 48.6172 10.6479 48.6172 12.0697C48.6172 13.4971 43.4328 15.4822 34.9836 15.4822Z" fill="#FCC21B"/>
<path d="M47.6493 18.1672C47.4688 18.1672 47.2829 18.2273 47.1188 18.2711C46.7469 18.364 46.3969 18.5281 46.025 18.6375C45.6969 18.7304 45.3852 18.8453 45.0625 18.9547C44.4391 19.1789 43.5258 19.239 43.0555 19.7422C42.618 20.2015 42.5797 21.0875 42.4922 21.6726C42.361 22.5586 42.279 23.45 42.1641 24.3414C41.9454 26.0422 41.5079 27.6992 40.9391 29.3179C40.6124 30.2408 40.2382 31.1462 39.818 32.0304C39.4516 32.8015 39.0469 33.5672 38.5875 34.2945C38.3907 34.6008 37.7836 35.3554 38.2047 35.689C38.4508 35.8859 38.9649 35.8586 39.2274 35.7383C42.1258 34.3711 44.111 31.7187 45.4672 28.8969C45.8883 28.0273 46.2493 27.125 46.5829 26.2117C46.9985 25.0742 47.3375 23.9148 47.6657 22.75C47.868 22.039 48.054 21.3226 48.1907 20.5953C48.2946 20.0375 48.6665 18.4515 47.8625 18.2C47.7948 18.1734 47.7219 18.1622 47.6493 18.1672ZM40.8297 47.0586C40.2118 47.1133 39.468 47.1187 39.036 46.8945C38.9047 46.8234 38.8282 46.7359 38.8555 46.5828C38.8829 46.4187 38.9594 46.4242 39.0743 46.3422C39.2766 46.2 39.5227 45.9265 39.643 45.7133C40.0094 45.057 39.6868 44.3242 39.4461 43.6844C39.3532 43.4383 39.025 43.0992 39.3641 42.9023C39.55 42.7984 39.8399 42.8476 40.0313 42.8914C40.3047 42.9515 40.6165 43.0719 40.879 43.1648C41.8688 43.5312 42.8477 44.532 42.8477 45.6367C42.8477 46.4844 42.2352 46.889 41.4586 46.9875C41.2727 47.0094 41.0594 47.0367 40.8297 47.0586Z" fill="#855C52"/>
</svg>
